<?xml version="1.0" standalone="no"?>
<!DOCTYPE svg PUBLIC "-//W3C//DTD SVG 20010904//EN"
 "http://www.w3.org/TR/2001/REC-SVG-20010904/DTD/svg10.dtd">
<svg version="1.0" xmlns="http://www.w3.org/2000/svg"
 width="512.000000pt" height="512.000000pt" viewBox="0 0 512.000000 512.000000"
 preserveAspectRatio="xMidYMid meet">

<g transform="translate(0.000000,512.000000) scale(0.100000,-0.100000)"
fill="rgba(0,0,0, 0.2)" stroke="none">
<path d="M2418 4125 c-92 -23 -185 -74 -272 -151 -44 -40 -513 -505 -1042
-1035 -694 -697 -972 -982 -1003 -1029 -53 -83 -92 -202 -98 -305 -17 -276
158 -519 432 -601 81 -24 239 -24 320 0 144 43 131 31 870 766 635 632 695
688 752 713 90 40 162 51 242 37 139 -23 116 -3 851 -735 462 -460 695 -686
737 -713 100 -63 187 -87 323 -87 176 0 293 48 416 170 187 187 225 460 98
708 -35 67 -108 143 -1088 1124 l-1051 1052 -85 40 c-131 61 -273 77 -402 46z"/>
</g>
</svg>
